<?xml version="1.0" encoding="UTF-8"?>
<svg width="100%" height="100%" viewBox="0 0 382 41" version="1.1" xmlns="http://www.w3.org/2000/svg" xmlns:xlink="http://www.w3.org/1999/xlink">
    <!-- Generator: Sketch 61.2 (89653) - https://sketch.com -->
    <title>Tax Wealth</title>
    <g id="Welcome" stroke="none" stroke-width="1" fill="none" fill-rule="evenodd">
        <g id="Desktop-HD-Alt" transform="translate(-14.000000, -15.000000)" fill="currentColor">
            <g id="Group-12" transform="translate(14.000000, 15.000000)">
                <g id="Group-13">
                    <g id="gliph1">
                        <path d="M1,0 L55,0 L55,41 L1,41 C1,34.9206897 1,28.8413793 1,22.747931 C1.05555556,15.2124138 1.01388889,7.6062069 1,0 Z M20.1111111,11.2255172 L22.4722222,11.2255172 C24.1527778,11.2255172 24.4444444,10.7024138 23.6388889,9.16137931 C23.0416667,8.03034483 22.25,6.95586207 21.8055556,5.78241379 C21.4765103,4.86125855 20.5457525,4.31305012 19.5972222,4.48172414 C14.8194444,4.48172414 10.0416667,4.48172414 5.26388889,4.48172414 C4.79166667,4.48172414 4.33333333,4.58068966 3.59722222,4.66551724 C4.44444444,6.27724138 5.26388889,7.6062069 5.875,9.03413793 C6.28502992,10.6352679 7.85023353,11.633386 9.44444444,11.3103448 C10.9558643,11.0520581 12.4295473,11.9425602 12.9305556,13.4168966 C14.3194444,16.3575862 16.0138889,19.1568966 17.5833333,22.0127586 L26.375,38.1724138 C27.4722222,40.18 27.7638889,40.18 28.9305556,38.327931 C29.7216024,37.0305116 30.5840903,35.7796644 31.5138889,34.5813793 C32.1406433,33.9306 32.1941982,32.9069272 31.6388889,32.192069 C28.6111111,26.7913793 25.6527778,21.3624138 22.6805556,15.9334483 C21.875,14.4206897 21.0694444,12.9644828 20.1111111,11.2255172 Z M25,4.55241379 C25.1206945,5.03383512 25.273835,5.50621835 25.4583333,5.9662069 C28.8842593,12.2151724 32.3148148,18.4594253 35.75,24.6989655 C38.2361111,29.2231034 40.6805556,33.7755172 43.1666667,38.2855172 C43.4166667,38.7237931 43.9305556,39.2751724 44.3194444,39.2613009 C44.7083333,39.2468966 45.125,38.6531034 45.4305556,38.2431034 C46.0613234,37.4635185 46.6192949,36.6257533 47.0972222,35.7406897 C47.5694444,34.7651724 48.7361111,34.0441379 47.9722222,32.602069 C43.1111111,23.6103448 38.25,14.5762069 33.4722222,5.5562069 C33.25,5.16034483 32.8194444,4.60896552 32.4722222,4.59482759 C30.0694444,4.51 27.6527778,4.55241379 25.0138889,4.55241379 L25,4.55241379 Z M43.2638889,15.8627586 L50.3472222,4.82103448 L37.0416667,4.82103448 L43.2638889,15.8627586 Z" id="Shape" fill-rule="nonzero"></path>
                        <path d="M0.62,0 C0.62,7.59573003 0.62,15.1914601 0.62,22.7730716 C0.62,28.8581267 0.62,34.9290634 0.62,41 C0.54,40.8305785 0.38,40.661157 0.38,40.4917355 C0.38,27.1639118 0.38,13.8360882 0.38,0.508264463 C0.38,0.338842975 0.54,0.169421488 0.62,0 Z" id="Path"></path>
                    </g>
                    <path d="M81.7890625,39 L81.7890625,6.4453125 L90.2265625,6.4453125 L90.2265625,4.1484375 L68.1484375,4.1484375 L68.1484375,6.4453125 L76.65625,6.4453125 L76.65625,39 L81.7890625,39 Z M98.8444374,39 L100.719437,34.4765625 L119.774125,34.4765625 L121.696,39 L127.110062,39 L112.391312,4.1484375 L106.906937,4.1484375 L108.781937,8.625 L96.0084999,39 L98.8444374,39 Z M118.813187,32.1796875 L101.680375,32.1796875 L110.16475,11.9296875 L118.813187,32.1796875 Z M137.2045,39 L147.282625,23.6953125 L157.313875,39 L163.642,39 L150.681062,19.453125 L160.806062,4.1484375 L157.876375,4.1484375 L149.2045,17.25 L140.602937,4.1484375 L134.556062,4.1484375 L145.8295,21.421875 L134.274812,39 L137.2045,39 Z M186.884875,39 L185.502062,34.734375 L190.939562,21.7265625 L196.541125,39 L201.767687,39 L200.314562,34.6875 L211.939562,4.1484375 L209.291125,4.1484375 L199.11925,30.984375 L190.423937,4.1484375 L185.267687,4.1484375 L189.791125,18.0703125 L184.330187,31.125 L175.611437,4.1484375 L170.478625,4.1484375 L181.705187,39 L186.884875,39 Z M244.487125,39 L244.487125,36.703125 L228.291812,36.703125 L228.291812,19.3125 L243.994937,19.3125 L243.994937,17.015625 L228.291812,17.015625 L228.291812,6.4453125 L244.487125,6.4453125 L244.487125,4.1484375 L223.159,4.1484375 L223.159,39 L244.487125,39 Z M256.6675,39 L258.5425,34.4765625 L277.597187,34.4765625 L279.519062,39 L284.933125,39 L270.214375,4.1484375 L264.73,4.1484375 L266.605,8.625 L253.831562,39 L256.6675,39 Z M276.63625,32.1796875 L259.503437,32.1796875 L267.987812,11.9296875 L276.63625,32.1796875 Z M315.511937,39 L315.511937,36.703125 L301.168187,36.703125 L301.168187,4.1484375 L296.035374,4.1484375 L296.035374,39 L315.511937,39 Z M334.371999,39 L334.371999,6.4453125 L342.809499,6.4453125 L342.809499,4.1484375 L320.731374,4.1484375 L320.731374,6.4453125 L329.239187,6.4453125 L329.239187,39 L334.371999,39 Z M360.146124,39 L360.146124,19.3125 L375.872687,19.3125 L375.872687,39 L381.005499,39 L381.005499,4.1484375 L375.872687,4.1484375 L375.872687,17.015625 L360.146124,17.015625 L360.146124,4.1484375 L355.013312,4.1484375 L355.013312,39 L360.146124,39 Z" id="TAXWEALTH" fill-rule="nonzero"></path>
                </g>
            </g>
        </g>
    </g>
</svg>